<svg width="113" height="110" viewBox="0 0 113 110" fill="none" xmlns="http://www.w3.org/2000/svg">
<path d="M29.261 29.8095C41.1974 44.4077 28.8123 68.8901 12.2299 62.5247C5.07799 59.7794 0.943452 52.0502 0.814547 44.1484C0.517638 25.8987 19.0139 17.2736 29.261 29.8095Z" fill="#FAC663" fill-opacity="0.15"/>
<path d="M43.7507 38.992C25.4085 31.951 31.8212 -1.17019 51.2045 0.420374C60.0353 1.14577 66.9243 10.1834 65.9141 21.4823C64.7852 34.1479 54.0624 42.9502 43.7507 38.992Z" fill="#FAC663" fill-opacity="0.15"/>
<path d="M27.2773 96.0068C30.0938 96.2834 34.788 97.5672 39.5452 99.3184C44.5753 101.166 49.6754 103.533 52.7053 105.768C60.8827 111.819 75.6929 110.458 77.8569 96.654C79.8559 83.8923 70.5175 81.0783 72.6598 69.0791C74.8316 56.9547 68.5158 48.2766 60.1791 45.5653C52.4629 43.057 43.0161 45.6623 36.9817 55.3865C30.5542 65.7496 21.7528 61.593 14.7043 72.412C7.0619 84.1246 17.1962 95.0231 27.2773 96.0068Z" fill="#FAC663" fill-opacity="0.15"/>
<path d="M76.0323 51.3849C70.8439 49.3933 67.5398 44.6825 66.8265 39.14C64.7073 22.6601 84.0524 8.39769 96.2998 17.7438C111.793 29.5573 94.3645 58.422 76.0323 51.3849Z" fill="#FAC663" fill-opacity="0.15"/>
<path d="M76.2997 75.4688C75.9178 58.86 96.6056 46.6926 107.822 57.3251C121.332 70.1317 103.253 96.0588 85.594 89.2802C79.9269 87.1049 76.4445 81.7825 76.2997 75.4688Z" fill="#FAC663" fill-opacity="0.15"/>
</svg>
