<svg width="102" height="105" viewBox="0 0 102 105" fill="none" xmlns="http://www.w3.org/2000/svg">
<path d="M16.8388 63.31C34.8222 60.6469 48.8257 82.9442 35.3114 93.5027C29.4828 98.0566 21.0508 97.6616 14.4738 93.8731C-0.715819 85.1228 1.3974 65.5944 16.8388 63.31Z" fill="#FAC663" fill-opacity="0.15"/>
<path d="M31.6316 55.8684C16.683 67.5476 -7.4185 45.9249 3.5569 30.6994C8.55778 23.7632 19.4416 22.528 28.2506 28.9318C38.1268 36.1074 40.0354 49.3027 31.6316 55.8684Z" fill="#FAC663" fill-opacity="0.15"/>
<path d="M70.4103 97.5782C72.0426 95.3884 75.4412 92.1439 79.2565 89.078C83.287 85.8339 87.781 82.7884 91.1336 81.3874C100.199 77.6162 106.461 64.7127 96.1625 56.1213C86.6409 48.1796 79.6655 54.5056 70.8438 46.8215C61.9335 39.0515 51.6319 39.9904 45.2406 45.5396C39.3259 50.6763 36.7631 59.7631 41.7691 69.5405C47.1058 79.9573 39.2915 85.178 44.6944 96.3326C50.5376 108.418 64.5731 105.42 70.4103 97.5782Z" fill="#FAC663" fill-opacity="0.15"/>
<path d="M57.9415 35.3143C53.7131 38.6179 48.183 39.0249 43.2591 36.8821C28.6196 30.5091 26.5098 7.50087 40.3194 1.99206C57.7812 -4.98159 72.8819 23.6416 57.9415 35.3143Z" fill="#FAC663" fill-opacity="0.15"/>
<path d="M77.925 46.9648C64.0455 39.0934 64.3318 16.0089 78.6874 11.9861C95.979 7.13975 108.334 34.8523 93.9427 46.0961C89.3241 49.7045 83.201 49.9573 77.925 46.9648Z" fill="#FAC663" fill-opacity="0.15"/>
</svg>
