<svg width="16" height="17" viewBox="0 0 16 17" fill="none" xmlns="http://www.w3.org/2000/svg">
<path d="M2.509 16.512C1.717 15.198 1.186 13.821 0.916 12.381C0.646 10.923 0.619 9.483 0.835 8.061C1.051 6.639 1.51 5.28 2.212 3.984C2.932 2.688 3.886 1.527 5.074 0.500998L6.721 1.5C7.009 1.698 7.135 1.941 7.099 2.229C7.063 2.499 6.964 2.724 6.802 2.904C6.37 3.444 5.983 4.119 5.641 4.929C5.317 5.721 5.101 6.585 4.993 7.521C4.885 8.457 4.921 9.429 5.101 10.437C5.281 11.445 5.659 12.435 6.235 13.407C6.487 13.821 6.559 14.19 6.451 14.514C6.343 14.838 6.109 15.072 5.749 15.216L2.509 16.512ZM10.906 16.512C10.114 15.198 9.583 13.821 9.313 12.381C9.043 10.923 9.016 9.483 9.232 8.061C9.448 6.639 9.907 5.28 10.609 3.984C11.329 2.688 12.283 1.527 13.471 0.500998L15.118 1.5C15.406 1.698 15.532 1.941 15.496 2.229C15.46 2.499 15.361 2.724 15.199 2.904C14.767 3.444 14.38 4.119 14.038 4.929C13.714 5.721 13.498 6.585 13.39 7.521C13.282 8.457 13.318 9.429 13.498 10.437C13.678 11.445 14.056 12.435 14.632 13.407C14.884 13.821 14.956 14.19 14.848 14.514C14.74 14.838 14.506 15.072 14.146 15.216L10.906 16.512Z" fill="#FAC663"/>
</svg>
